<?xml version="1.0" encoding="UTF-8"?>
<svg width="416px" height="63px" viewBox="0 0 416 63" version="1.1" xmlns="http://www.w3.org/2000/svg" xmlns:xlink="http://www.w3.org/1999/xlink">
    <!-- Generator: Sketch 52.5 (67469) - http://www.bohemiancoding.com/sketch -->
    <title>Group 3</title>
    <desc>Created with Sketch.</desc>
    <g id="Christmas" stroke="none" stroke-width="1" fill="none" fill-rule="evenodd">
        <g id="Facebook-ads-1" transform="translate(-511.000000, -241.000000)" fill-rule="nonzero">
            <g id="Group-3" transform="translate(511.000000, 241.000000)">
                <g id="Group" transform="translate(83.000000, 0.000000)" fill="#000000">
                    <path d="M18.1250077,13.2869722 L22.5058062,39.8579814 L13.752907,39.8579814 L18.1250077,13.2869722 Z M13.752907,0 L0.627906977,62 L9.38080625,62 L12.6627811,46.5 L23.5988314,46.5 L26.877907,62 L35.627907,62 L22.5058062,0 L13.752907,0 Z" id="Shape"></path>
                    <path d="M60.627907,6.64495361 L58.4261572,6.64495361 L58.4261572,26.5710093 L60.627907,26.5710093 C67.7434955,26.5710093 71.627907,23.8384776 71.627907,16.6065139 C71.627907,9.37748532 67.7434955,6.64495361 60.627907,6.64495361 M72.7273237,31 L82.627907,62 L73.8967299,62 L65.0284902,33.2130278 L58.4261572,33.2130278 L58.4261572,62 L49.627907,62 L49.627907,0 L60.6249908,0 C73.1705899,0 80.423241,4.29104336 80.423241,16.6065139 C80.4261572,23.9089188 77.8482145,29.1333081 72.7273237,31" id="Shape"></path>
                    <path d="M109.380686,63 C96.2708204,63 92.627907,53.5593559 92.627907,40.2886579 L92.627907,22.6762577 C92.627907,9.40848339 96.2708204,0 109.380686,0 C121.670103,0 125.627907,8.06357899 125.627907,20.4717839 L116.906293,20.4717839 C116.906293,12.9578615 116.669402,7.23617041 109.380686,7.23617041 C102.09486,7.23617041 101.343743,12.9578615 101.343743,20.4717839 L101.343743,42.5282161 C101.343743,49.2819751 102.741975,55.7638296 109.380686,55.7638296 C116.056954,55.7638296 116.906293,49.2761277 116.906293,42.5282161 L116.906293,40.3237423 L125.627907,40.3237423 L125.627907,42.5282161 C125.627907,54.7931595 121.606547,63 109.380686,63" id="Shape"></path>
                    <path d="M154.122109,13.2869722 L158.499283,39.8579814 L149.750733,39.8579814 L154.122109,13.2869722 Z M149.750733,0 L136.627907,62 L145.382255,62 L148.663686,46.5 L159.595026,46.5 L162.873559,62 L171.627907,62 L158.499283,0 L149.750733,0 Z" id="Shape"></path>
                    <path d="M197.997109,6.64495361 L193.356512,6.64495361 L193.356512,55.3609165 L198.164911,55.3609165 C207.405602,55.3609165 206.896409,48.9918576 206.896409,39.8609165 L206.896409,19.9319258 C206.893516,11.4555009 206.656278,6.64495361 197.997109,6.64495361 M198.095476,62 L184.627907,62 L184.627907,0 L198.164911,0 C210.958378,0 215.627907,4.70488544 215.627907,17.7130278 L215.627907,42.0710093 C215.627907,55.2493846 211.12618,62 198.095476,62" id="Shape"></path>
                    <polygon id="Rectangle-path" points="232.627907 0 241.627907 0 241.627907 62 232.627907 62"></polygon>
                    <polygon id="Shape" points="261.627907 0 261.627907 62 285.627907 62 285.627907 55.3579814 270.356757 55.3579814 270.356757 33.221833 281.263482 33.221833 281.263482 26.5710093 270.356757 26.5710093 270.356757 6.64495361 285.627907 6.64495361 285.627907 0"></polygon>
                    <path d="M310.621103,6.64495361 L308.422464,6.64495361 L308.422464,26.5710093 L310.621103,26.5710093 C317.736063,26.5710093 321.620131,23.8384776 321.620131,16.6065139 C321.625963,9.37748532 317.741895,6.64495361 310.621103,6.64495361 M322.725283,31 L332.627907,62 L323.900417,62 L315.032961,33.2130278 L308.42538,33.2130278 L308.42538,62 L299.627907,62 L299.627907,0 L310.624019,0 C323.174342,0 330.42052,4.29104336 330.42052,16.6065139 C330.417604,23.9089188 327.845721,29.1333081 322.725283,31" id="Shape"></path>
                </g>
                <g id="Group-2" fill="#FF334F">
                    <path d="M31.1764265,22.5655814 C23.4087903,22.5655814 15.0696698,36.857114 6.62250759,62.7770021 L7.05183155,62.7911831 L50.5272801,62.7911831 C45.5431417,37.3364291 39.1942648,23.0789308 31.5915344,22.5825985 C31.4522174,22.5712538 31.3129003,22.5655814 31.1764265,22.5655814" id="Shape"></path>
                    <path d="M55.8552945,1.0658141e-14 L6.93017809,1.0658141e-14 C3.10545048,1.0658141e-14 3.19744231e-14,3.07555478 3.19744231e-14,6.86628911 L3.19744231e-14,55.3260644 C3.19744231e-14,56.4200347 0.259738964,57.4574691 0.722131407,58.376178 C11.8081329,30.7187994 23.5163662,14.9961563 34.8792324,14.9961563 C35.1446799,14.9961563 35.4101274,15.0046367 35.6755749,15.0272511 C46.3648323,15.7169895 55.5241986,30.3682766 62.779764,55.7246427 L62.7911811,55.3232376 L62.7911811,6.86628911 C62.7940354,3.07555478 59.6885849,1.0658141e-14 55.8552945,1.0658141e-14" id="Shape"></path>
                </g>
            </g>
        </g>
    </g>
</svg>