<svg xmlns="http://www.w3.org/2000/svg" width="20" height="20" viewBox="0 0 20 20">
    <g fill="none" fill-rule="nonzero">
        <path fill="#FF6C37" d="M15.357 4.986l-6.59 6.355L6.9 9.545c6.484-6.26 7.131-5.708 8.457-4.56z"/>
        <path fill="#FFF" d="M8.767 11.567a.234.234 0 0 1-.163-.063L6.71 9.702a.222.222 0 0 1-.069-.16c0-.06.025-.118.07-.16 6.412-6.16 7.28-5.878 8.802-4.578.05.038.079.096.079.157a.209.209 0 0 1-.065.17l-6.61 6.373a.233.233 0 0 1-.15.063zM7.233 9.545l1.534 1.475 6.27-6.022a1.47 1.47 0 0 0-1.861-.301c-1.143.49-2.985 1.99-5.963 4.848h.02z"/>
        <path fill="#FF6C37" d="M10.642 13.162l-1.803-1.733 6.61-6.355c1.808 1.708-.863 4.502-4.807 8.088z"/>
        <path fill="#FFF" d="M10.642 13.388a.226.226 0 0 1-.157-.07l-1.816-1.732a.228.228 0 0 1 0-.32l6.629-6.355a.256.256 0 0 1 .333 0c.424.376.661.908.653 1.463 0 1.701-2.011 3.836-5.44 6.951a.234.234 0 0 1-.202.063zm-1.47-1.96l1.476 1.42c2.612-2.38 5.107-4.817 5.127-6.48a1.435 1.435 0 0 0-.34-.936l-6.263 5.997z"/>
        <path fill="#FF6C37" d="M6.926 9.589l1.306 1.256c.016.011.026.03.026.05 0 .02-.01.038-.026.05l-2.73.597a.265.265 0 0 1-.276-.129.244.244 0 0 1 .04-.292l1.542-1.532a.066.066 0 0 1 .059-.036c.025 0 .048.014.059.036z"/>
        <path fill="#FFF" d="M5.417 11.774a.496.496 0 0 1-.45-.296.464.464 0 0 1 .104-.514l1.593-1.539a.323.323 0 0 1 .425 0l1.306 1.256a.3.3 0 0 1 .078.29.303.303 0 0 1-.228.2l-2.75.565-.078.038zM6.88 9.89l-1.476 1.42 2.443-.51-.967-.91z"/>
        <path fill="#FF6C37" d="M18.864 1.463a2.609 2.609 0 0 0-3.422-.081 2.37 2.37 0 0 0-.384 3.27c.773 1.022 2.23 1.305 3.355.654l-1.776-1.708 2.227-2.135z"/>
        <path fill="#FFF" d="M17.107 5.884c-1.124.003-2.138-.646-2.568-1.645a2.589 2.589 0 0 1 .609-2.908 2.87 2.87 0 0 1 3.879-.031.21.21 0 0 1 .072.157c0 .061-.026.12-.072.163L16.97 3.598l1.593 1.551c.05.047.075.115.066.182a.238.238 0 0 1-.111.17c-.426.247-.914.38-1.411.383zm0-4.873c-.934 0-1.775.544-2.128 1.376a2.15 2.15 0 0 0 .52 2.414 2.367 2.367 0 0 0 2.522.449l-1.548-1.495a.21.21 0 0 1-.071-.157.21.21 0 0 1 .071-.157l2.045-1.972a2.362 2.362 0 0 0-1.411-.433v-.025z"/>
        <path fill="#FF6C37" d="M18.903 1.495l-.04-.032-2.226 2.135 1.776 1.708c.179-.101.343-.223.49-.364a2.377 2.377 0 0 0 0-3.447z"/>
        <path fill="#FFF" d="M18.413 5.532a.26.26 0 0 1-.163-.063l-1.777-1.714a.21.21 0 0 1-.071-.157.21.21 0 0 1 .071-.157l2.22-2.141a.249.249 0 0 1 .334 0l.04.038c.604.575.9 1.386.802 2.199A2.656 2.656 0 0 1 18.563 5.5a.277.277 0 0 1-.15.031zM16.97 3.598l1.476 1.42c.103-.07.199-.147.287-.233a2.143 2.143 0 0 0 .124-3.002L16.97 3.598z"/>
        <path fill="#FF6C37" d="M15.631 5.25a.98.98 0 0 0-.682-.274.98.98 0 0 0-.683.274L8.39 10.932l.98.949 6.249-5.275a.92.92 0 0 0 .31-.676.918.918 0 0 0-.297-.68z"/>
        <path fill="#FFF" d="M9.336 12.107a.24.24 0 0 1-.164-.07l-.986-.954a.222.222 0 0 1-.069-.16c0-.06.025-.118.07-.16l5.91-5.652c.224-.217.53-.34.848-.34.32 0 .625.123.85.34.236.223.364.53.352.848-.012.32-.158.621-.405.835l-6.25 5.275a.242.242 0 0 1-.156.038zm-.654-1.175l.654.628 6.08-5.136a.662.662 0 0 0 .248-.502.677.677 0 0 0-.216-.522.76.76 0 0 0-1.032 0l-5.734 5.532z"/>
        <path fill="#FF6C37" d="M3.824 17.394a.124.124 0 0 0-.072.15l.261 1.087a.303.303 0 0 1-.155.337.33.33 0 0 1-.38-.048L1.76 17.275l5.623-5.413 1.959.031 1.306 1.256c-.333.276-2.227 2.028-6.824 4.245z"/>
        <path fill="#FFF" d="M3.7 19.246a.58.58 0 0 1-.392-.157l-1.724-1.657a.21.21 0 0 1-.072-.157c0-.062.026-.12.072-.164l5.636-5.4a.24.24 0 0 1 .17-.069l1.959.031c.06 0 .117.026.156.07l1.306 1.255c.047.045.071.107.066.17a.217.217 0 0 1-.085.163l-.105.088a32.292 32.292 0 0 1-6.694 4.138l.249 1.018a.526.526 0 0 1-.268.59.611.611 0 0 1-.274.081zm-1.607-1.965l1.548 1.488c.03.023.074.023.104 0a.068.068 0 0 0 .04-.088l-.242-1.086a.347.347 0 0 1 .19-.402 32.241 32.241 0 0 0 6.576-4.044l-1.085-1.03H7.481l-5.388 5.162z"/>
        <path fill="#FF6C37" d="M.415 18.568l1.345-1.293 2.005 1.921-3.2-.207a.259.259 0 0 1-.207-.167.244.244 0 0 1 .057-.254z"/>
        <path fill="#FFF" d="M3.765 19.422l-3.213-.176a.486.486 0 0 1-.418-.32.441.441 0 0 1 .144-.515l1.306-1.3a.24.24 0 0 1 .333 0l1.998 1.928a.22.22 0 0 1 .052.251.235.235 0 0 1-.202.132zm-3.187-.697l2.56.17-1.391-1.338-1.169 1.168z"/>
        <path fill="#FF6C37" d="M9.453 12.019l-2.638.395 1.521-1.463z"/>
        <path fill="#FFF" d="M6.808 12.64a.235.235 0 0 1-.219-.141.22.22 0 0 1 .056-.248l1.522-1.463a.24.24 0 0 1 .333 0l1.11 1.074a.208.208 0 0 1 .059.226.239.239 0 0 1-.19.157l-2.612.39-.059.006zm1.522-1.375l-.843.817 1.463-.22-.62-.597z"/>
        <path fill="#FF6C37" d="M9.453 12.019l-1.848.232a.245.245 0 0 1-.26-.116.226.226 0 0 1 .038-.273l.953-.91 1.117 1.067z"/>
        <path fill="#FFF" d="M7.553 12.484a.477.477 0 0 1-.427-.283.445.445 0 0 1 .094-.49l.953-.917a.24.24 0 0 1 .333 0l1.11 1.074a.22.22 0 0 1 .057.23c-.027.081-.1.14-.187.153l-1.842.226-.091.007zm0-.459l1.378-.17-.614-.59-.784.76h.02zM18.916 2.92a.174.174 0 0 0-.103-.09.183.183 0 0 0-.139.008.173.173 0 0 0-.085.233.511.511 0 0 1-.065.571.166.166 0 0 0-.054.123c0 .046.02.09.054.122a.188.188 0 0 0 .118.038.172.172 0 0 0 .137-.063.835.835 0 0 0 .137-.942z"/>
    </g>
</svg>
